<svg id="visual" viewBox="0 0 900 600" width="900" height="600" xmlns="http://www.w3.org/2000/svg" xmlns:xlink="http://www.w3.org/1999/xlink" version="1.1"><g stroke-width="1" stroke-linejoin="bevel"><path d="M411 261L510 173L389 238Z" fill="#3a663d" stroke="#3a663d"></path><path d="M411 261L522 267L510 173Z" fill="#375a39" stroke="#375a39"></path><path d="M568 129L519 102L510 173Z" fill="#375a39" stroke="#375a39"></path><path d="M510 173L363 113L389 238Z" fill="#3e7d44" stroke="#3e7d44"></path><path d="M519 102L363 113L510 173Z" fill="#3e7d44" stroke="#3e7d44"></path><path d="M630 184L568 129L510 173Z" fill="#375a39" stroke="#375a39"></path><path d="M471 386L573 277L522 267Z" fill="#42d75d" stroke="#42d75d"></path><path d="M522 267L573 277L510 173Z" fill="#42d75d" stroke="#42d75d"></path><path d="M263 194L284 262L389 238Z" fill="#3a663d" stroke="#3a663d"></path><path d="M389 238L284 262L411 261Z" fill="#43bd56" stroke="#43bd56"></path><path d="M411 261L471 386L522 267Z" fill="#3e7d44" stroke="#3e7d44"></path><path d="M427 0L325 78L363 113Z" fill="#42a350" stroke="#42a350"></path><path d="M363 113L263 194L389 238Z" fill="#408a48" stroke="#408a48"></path><path d="M573 277L630 184L510 173Z" fill="#43b053" stroke="#43b053"></path><path d="M372 391L471 386L411 261Z" fill="#43bd56" stroke="#43bd56"></path><path d="M325 78L263 194L363 113Z" fill="#42a350" stroke="#42a350"></path><path d="M284 262L372 391L411 261Z" fill="#43bd56" stroke="#43bd56"></path><path d="M504 0L427 0L519 102Z" fill="#3a663d" stroke="#3a663d"></path><path d="M519 102L427 0L363 113Z" fill="#42a350" stroke="#42a350"></path><path d="M504 0L519 102L619 0Z" fill="#3e7d44" stroke="#3e7d44"></path><path d="M619 0L519 102L568 129Z" fill="#3a663d" stroke="#3a663d"></path><path d="M573 277L682 212L630 184Z" fill="#408a48" stroke="#408a48"></path><path d="M717 86L619 0L568 129Z" fill="#3a663d" stroke="#3a663d"></path><path d="M719 277L682 212L573 277Z" fill="#3e7d44" stroke="#3e7d44"></path><path d="M427 0L330 0L325 78Z" fill="#42d75d" stroke="#42d75d"></path><path d="M161 113L168 176L263 194Z" fill="#43bd56" stroke="#43bd56"></path><path d="M284 262L294 397L372 391Z" fill="#3a663d" stroke="#3a663d"></path><path d="M604 466L600 404L471 386Z" fill="#3c7141" stroke="#3c7141"></path><path d="M165 322L294 397L284 262Z" fill="#43ca5a" stroke="#43ca5a"></path><path d="M604 466L471 386L505 529Z" fill="#41964c" stroke="#41964c"></path><path d="M471 386L600 404L573 277Z" fill="#3a663d" stroke="#3a663d"></path><path d="M717 86L568 129L630 184Z" fill="#43bd56" stroke="#43bd56"></path><path d="M600 404L660 374L573 277Z" fill="#375a39" stroke="#375a39"></path><path d="M660 374L719 277L573 277Z" fill="#43b053" stroke="#43b053"></path><path d="M682 212L717 86L630 184Z" fill="#3e7d44" stroke="#3e7d44"></path><path d="M161 113L263 194L325 78Z" fill="#42a350" stroke="#42a350"></path><path d="M263 194L168 176L284 262Z" fill="#42d75d" stroke="#42d75d"></path><path d="M765 81L717 86L820 186Z" fill="#3e7d44" stroke="#3e7d44"></path><path d="M197 0L161 113L325 78Z" fill="#375a39" stroke="#375a39"></path><path d="M600 404L661 463L660 374Z" fill="#42a350" stroke="#42a350"></path><path d="M505 529L471 386L374 539Z" fill="#3e7d44" stroke="#3e7d44"></path><path d="M138 312L165 322L168 176Z" fill="#43bd56" stroke="#43bd56"></path><path d="M168 176L165 322L284 262Z" fill="#3a663d" stroke="#3a663d"></path><path d="M330 0L197 0L325 78Z" fill="#3c7141" stroke="#3c7141"></path><path d="M165 322L214 432L294 397Z" fill="#43bd56" stroke="#43bd56"></path><path d="M374 539L471 386L372 391Z" fill="#43ca5a" stroke="#43ca5a"></path><path d="M96 191L138 312L168 176Z" fill="#43ca5a" stroke="#43ca5a"></path><path d="M165 322L135 380L214 432Z" fill="#43b053" stroke="#43b053"></path><path d="M717 86L709 0L619 0Z" fill="#42d75d" stroke="#42d75d"></path><path d="M374 539L372 391L304 518Z" fill="#42a350" stroke="#42a350"></path><path d="M561 600L661 463L604 466Z" fill="#3e7d44" stroke="#3e7d44"></path><path d="M604 466L661 463L600 404Z" fill="#375a39" stroke="#375a39"></path><path d="M660 374L780 382L719 277Z" fill="#43bd56" stroke="#43bd56"></path><path d="M820 186L717 86L682 212Z" fill="#3e7d44" stroke="#3e7d44"></path><path d="M717 86L765 81L709 0Z" fill="#43ca5a" stroke="#43ca5a"></path><path d="M304 518L372 391L294 397Z" fill="#42d75d" stroke="#42d75d"></path><path d="M130 0L119 97L161 113Z" fill="#42a350" stroke="#42a350"></path><path d="M161 113L96 191L168 176Z" fill="#3a663d" stroke="#3a663d"></path><path d="M214 468L304 518L294 397Z" fill="#375a39" stroke="#375a39"></path><path d="M119 97L96 191L161 113Z" fill="#3e7d44" stroke="#3e7d44"></path><path d="M94 495L214 468L214 432Z" fill="#43bd56" stroke="#43bd56"></path><path d="M214 432L214 468L294 397Z" fill="#43b053" stroke="#43b053"></path><path d="M0 363L135 380L138 312Z" fill="#42d75d" stroke="#42d75d"></path><path d="M138 312L135 380L165 322Z" fill="#42a350" stroke="#42a350"></path><path d="M827 278L820 186L719 277Z" fill="#408a48" stroke="#408a48"></path><path d="M719 277L820 186L682 212Z" fill="#408a48" stroke="#408a48"></path><path d="M661 463L780 382L660 374Z" fill="#408a48" stroke="#408a48"></path><path d="M0 79L0 211L96 191Z" fill="#41964c" stroke="#41964c"></path><path d="M197 0L130 0L161 113Z" fill="#42a350" stroke="#42a350"></path><path d="M780 382L827 278L719 277Z" fill="#375a39" stroke="#375a39"></path><path d="M374 539L429 600L505 529Z" fill="#43bd56" stroke="#43bd56"></path><path d="M505 529L561 600L604 466Z" fill="#41964c" stroke="#41964c"></path><path d="M294 600L429 600L374 539Z" fill="#43bd56" stroke="#43bd56"></path><path d="M294 600L374 539L304 518Z" fill="#3c7141" stroke="#3c7141"></path><path d="M429 600L471 600L505 529Z" fill="#3e7d44" stroke="#3e7d44"></path><path d="M661 463L794 481L780 382Z" fill="#43ca5a" stroke="#43ca5a"></path><path d="M471 600L561 600L505 529Z" fill="#41964c" stroke="#41964c"></path><path d="M225 600L304 518L214 468Z" fill="#3c7141" stroke="#3c7141"></path><path d="M225 600L294 600L304 518Z" fill="#43b053" stroke="#43b053"></path><path d="M900 64L824 0L765 81Z" fill="#42a350" stroke="#42a350"></path><path d="M765 81L824 0L709 0Z" fill="#43b053" stroke="#43b053"></path><path d="M900 64L765 81L820 186Z" fill="#3a663d" stroke="#3a663d"></path><path d="M715 600L794 481L661 463Z" fill="#41964c" stroke="#41964c"></path><path d="M780 382L900 287L827 278Z" fill="#3a663d" stroke="#3a663d"></path><path d="M96 191L0 262L138 312Z" fill="#43bd56" stroke="#43bd56"></path><path d="M124 600L225 600L214 468Z" fill="#43ca5a" stroke="#43ca5a"></path><path d="M0 79L96 191L119 97Z" fill="#43b053" stroke="#43b053"></path><path d="M0 211L0 262L96 191Z" fill="#41964c" stroke="#41964c"></path><path d="M900 287L820 186L827 278Z" fill="#41964c" stroke="#41964c"></path><path d="M900 287L900 168L820 186Z" fill="#375a39" stroke="#375a39"></path><path d="M94 495L214 432L135 380Z" fill="#375a39" stroke="#375a39"></path><path d="M0 363L94 495L135 380Z" fill="#43ca5a" stroke="#43ca5a"></path><path d="M900 425L900 287L780 382Z" fill="#42d75d" stroke="#42d75d"></path><path d="M130 0L0 79L119 97Z" fill="#43bd56" stroke="#43bd56"></path><path d="M900 168L900 64L820 186Z" fill="#43b053" stroke="#43b053"></path><path d="M0 262L0 363L138 312Z" fill="#3c7141" stroke="#3c7141"></path><path d="M561 600L715 600L661 463Z" fill="#408a48" stroke="#408a48"></path><path d="M130 0L0 0L0 79Z" fill="#43b053" stroke="#43b053"></path><path d="M900 64L900 0L824 0Z" fill="#41964c" stroke="#41964c"></path><path d="M900 539L900 425L794 481Z" fill="#43ca5a" stroke="#43ca5a"></path><path d="M794 481L900 425L780 382Z" fill="#3e7d44" stroke="#3e7d44"></path><path d="M0 600L124 600L94 495Z" fill="#3a663d" stroke="#3a663d"></path><path d="M94 495L124 600L214 468Z" fill="#408a48" stroke="#408a48"></path><path d="M0 363L0 498L94 495Z" fill="#375a39" stroke="#375a39"></path><path d="M715 600L826 600L794 481Z" fill="#375a39" stroke="#375a39"></path><path d="M826 600L900 539L794 481Z" fill="#42a350" stroke="#42a350"></path><path d="M0 498L0 600L94 495Z" fill="#375a39" stroke="#375a39"></path><path d="M826 600L900 600L900 539Z" fill="#42d75d" stroke="#42d75d"></path></g></svg>