<svg id="visual" viewBox="0 0 900 600" width="900" height="600" xmlns="http://www.w3.org/2000/svg" xmlns:xlink="http://www.w3.org/1999/xlink" version="1.1"><rect x="0" y="0" width="900" height="600" fill="#fff"></rect><defs><linearGradient id="grad1_0" x1="33.3%" y1="100%" x2="100%" y2="0%"><stop offset="20%" stop-color="#ffffff" stop-opacity="1"></stop><stop offset="80%" stop-color="#ffffff" stop-opacity="1"></stop></linearGradient></defs><defs><linearGradient id="grad2_0" x1="0%" y1="100%" x2="66.7%" y2="0%"><stop offset="20%" stop-color="#ffffff" stop-opacity="1"></stop><stop offset="80%" stop-color="#ffffff" stop-opacity="1"></stop></linearGradient></defs><g transform="translate(900, 600)"><path d="M-270.4 0C-263.6 -47.8 -256.8 -95.5 -234.2 -135.2C-211.6 -174.9 -173.2 -206.6 -131.5 -227.8C-89.8 -249 -44.9 -259.7 0 -270.4L0 0Z" fill="#FBAE3C"></path></g><g transform="translate(0, 0)"><path d="M270.4 0C264 48.4 257.6 96.9 234.2 135.2C210.8 173.5 170.4 201.7 128.5 222.6C86.6 243.4 43.3 256.9 0 270.4L0 0Z" fill="#FBAE3C"></path></g></svg>