<svg id="visual" style="transform: rotate(90deg)" viewBox="0 0 900 600" width="900" height="600" xmlns="http://www.w3.org/2000/svg" xmlns:xlink="http://www.w3.org/1999/xlink" version="1.1"><rect x="0" y="0" width="900" height="600" fill="#fff"></rect><defs><linearGradient id="grad1_0" x1="33.3%" y1="0%" x2="100%" y2="100%"><stop offset="20%" stop-color="#ffffff" stop-opacity="1"></stop><stop offset="80%" stop-color="#ffffff" stop-opacity="1"></stop></linearGradient></defs><defs><linearGradient id="grad2_0" x1="0%" y1="0%" x2="66.7%" y2="100%"><stop offset="20%" stop-color="#ffffff" stop-opacity="1"></stop><stop offset="80%" stop-color="#ffffff" stop-opacity="1"></stop></linearGradient></defs><g transform="translate(900, 0)"><path d="M0 270.4C-47.8 263.6 -95.5 256.8 -135.2 234.2C-174.9 211.6 -206.6 173.2 -227.8 131.5C-249 89.8 -259.7 44.9 -270.4 0L0 0Z" fill="#FBAE3C"></path></g><g transform="translate(0, 600)"><path d="M0 -270.4C48.4 -264 96.9 -257.6 135.2 -234.2C173.5 -210.8 201.7 -170.4 222.6 -128.5C243.4 -86.6 256.9 -43.3 270.4 0L0 0Z" fill="#FBAE3C"></path></g></svg>